<svg width="24" height="24" viewBox="0 0 24 24" fill="none" xmlns="http://www.w3.org/2000/svg">
<path d="M1.81594 15.556V15.558C1.81594 17.06 2.39994 18.47 3.46194 19.53C4.52394 20.59 5.93394 21.177 7.43594 21.177C8.17389 21.1791 8.90493 21.0348 9.58673 20.7524C10.2685 20.47 10.8875 20.0552 11.4079 19.532L20.9549 9.98402C21.7239 9.21602 22.1019 8.21702 22.0129 7.16702C21.9339 6.19902 21.4649 5.24002 20.6939 4.46902C19.0999 2.87702 16.6259 2.75802 15.1769 4.20702L7.26094 12.122C6.37994 13.003 6.46894 14.372 7.47494 15.383C8.43394 16.341 9.89794 16.436 10.7379 15.598L16.2489 10.086C16.5289 9.80602 16.5159 9.36402 16.3019 9.15002L16.0579 8.90602C15.8669 8.71502 15.4909 8.55702 15.1009 8.94602L9.59494 14.452C9.41494 14.632 8.95994 14.579 8.61894 14.238C8.52094 14.141 8.04294 13.625 8.40594 13.265L16.3209 5.34802C17.1389 4.53102 18.5879 4.64902 19.5509 5.61002C20.0509 6.11102 20.3529 6.71002 20.3999 7.29502C20.4509 7.86802 20.2439 8.40602 19.8109 8.83802L10.2639 18.387C9.89338 18.7598 9.4525 19.0552 8.96687 19.2562C8.48124 19.4572 7.96053 19.5598 7.43494 19.558C6.90909 19.5594 6.38818 19.4565 5.9024 19.2551C5.41662 19.0538 4.97562 18.758 4.60494 18.385C4.23228 18.0146 3.93681 17.5739 3.73563 17.0884C3.53446 16.603 3.43157 16.0825 3.43294 15.557C3.43294 14.486 3.84794 13.481 4.60494 12.727L11.8139 5.51602C11.9709 5.35902 12.0779 4.93702 11.8419 4.70202L11.4999 4.36002C11.4452 4.30419 11.3797 4.26016 11.3073 4.23066C11.2349 4.20116 11.1572 4.1868 11.079 4.18849C11.0009 4.19018 10.9239 4.20787 10.8529 4.24046C10.7818 4.27306 10.7182 4.31988 10.6659 4.37802L3.46094 11.585C2.9377 12.1052 2.52289 12.724 2.24051 13.4057C1.95814 14.0873 1.81383 14.8182 1.81594 15.556Z" fill="black"/>
</svg>
