<svg width="24" height="24" viewBox="0 0 24 24" fill="none" xmlns="http://www.w3.org/2000/svg">
<path d="M12 2.79999C6.70005 2.79999 2.30005 7.09999 2.30005 12.5C2.30005 17.9 6.60005 22.2 12 22.2C17.4 22.2 21.7001 17.9 21.7001 12.5C21.7001 7.09999 17.3 2.79999 12 2.79999ZM4.70005 12.5C4.70005 8.49999 8.00005 5.19999 12 5.19999C13.6 5.19999 15.1 5.69999 16.3 6.59999L6.10005 16.8C5.20005 15.6 4.70005 14.1 4.70005 12.5ZM12 19.8C10.4 19.8 9.00005 19.3 7.80005 18.4L17.9 8.29999C18.8 9.49999 19.3 10.9 19.3 12.5C19.3 16.5 16 19.8 12 19.8Z" fill="black"/>
</svg>
