<svg width="24" height="24" viewBox="0 0 24 24" fill="none" xmlns="http://www.w3.org/2000/svg">
<path d="M4.89998 5.89998H11.3V4.09998H4.89998C3.89998 4.09998 3.09998 4.89998 3.09998 5.89998V12.3H4.89998V5.89998ZM10.2 13.9L6.59998 18.3H17.3L14.6 14.7L12.8 17.1L10.2 13.9ZM16.4 9.89998C16.4 9.19998 15.8 8.59998 15.1 8.59998C14.4 8.59998 13.8 9.19998 13.8 9.89998C13.8 10.6 14.4 11.2 15.1 11.2C15.8 11.2 16.4 10.6 16.4 9.89998ZM19.1 4.09998H12.7V5.89998H19.1V12.3H20.9V5.89998C20.9 4.89998 20.1 4.09998 19.1 4.09998ZM19.1 20.1H12.7V21.9H19.1C20.1 21.9 20.9 21.1 20.9 20.1V13.7H19.1V20.1ZM4.89998 13.7H3.09998V20.1C3.09998 21.1 3.89998 21.9 4.89998 21.9H11.3V20.1H4.89998V13.7Z" fill="black"/>
</svg>
