<svg width="24" height="21" viewBox="0 0 24 21" fill="none" xmlns="http://www.w3.org/2000/svg">
<path d="M11.9154 16.2686C11.6838 16.268 11.4617 16.1757 11.2979 16.0118C11.1341 15.848 11.0418 15.626 11.0412 15.3943C11.0412 14.9131 11.4343 14.52 11.9154 14.52C12.3966 14.52 12.7897 14.9131 12.7897 15.3943C12.7897 15.8754 12.3966 16.2686 11.9154 16.2686ZM4.92459 4.03313H18.9074V13.6468H4.92459V4.03313ZM18.9074 15.3954C19.8686 15.3954 20.6469 14.6091 20.6469 13.648L20.656 4.03428C20.656 3.07199 19.8686 2.28571 18.9074 2.28571H4.92459C3.96345 2.28571 3.17602 3.07199 3.17602 4.03313V13.6468C3.17602 14.608 3.9623 15.3943 4.92345 15.3943H1.42859C1.42859 16.3566 2.21487 17.1428 3.17602 17.1428H20.6549C21.616 17.1428 22.4023 16.3566 22.4023 15.3954H18.9074Z" fill="black"/>
</svg>
