<svg width="16" height="15" viewBox="0 0 16 15" fill="none" xmlns="http://www.w3.org/2000/svg">
<path d="M15.01 3.31601L14.532 2.94401C14.4558 2.88515 14.3595 2.85875 14.264 2.87055C14.1685 2.88235 14.0815 2.93139 14.022 3.00701L8.66599 9.87901C8.6384 9.91588 8.60317 9.94637 8.56271 9.96838C8.52225 9.99038 8.47751 10.0034 8.43156 10.0065C8.38561 10.0097 8.33953 10.0028 8.29645 9.98653C8.25338 9.97022 8.21434 9.9448 8.18199 9.91201L7.82399 9.58701C7.7918 9.55401 7.75283 9.52838 7.70978 9.51189C7.66673 9.4954 7.62062 9.48843 7.57462 9.49148C7.52862 9.49452 7.48382 9.50749 7.44332 9.52951C7.40281 9.55153 7.36756 9.58206 7.33999 9.61901L6.96199 10.102C6.90272 10.1818 6.87378 10.28 6.88038 10.3791C6.88698 10.4783 6.92867 10.5718 6.99799 10.643L8.31799 11.909C8.46099 12.049 8.67899 12.034 8.80199 11.876L15.074 3.82801C15.1331 3.75152 15.1596 3.65474 15.1476 3.55881C15.1356 3.46289 15.0861 3.3756 15.01 3.31601ZM10.91 3.31601L10.432 2.94401C10.3558 2.88515 10.2595 2.85875 10.164 2.87055C10.0685 2.88235 9.98153 2.93139 9.92199 3.00701L4.56599 9.87901C4.5384 9.91588 4.50317 9.94637 4.46271 9.96838C4.42225 9.99038 4.37751 10.0034 4.33156 10.0065C4.28561 10.0097 4.23953 10.0028 4.19645 9.98653C4.15338 9.97022 4.11434 9.9448 4.08199 9.91201L1.89099 7.76901C1.82168 7.70196 1.72869 7.66497 1.63226 7.6661C1.53582 7.66722 1.44373 7.70636 1.37599 7.77501L0.952993 8.20801C0.885757 8.27703 0.848632 8.3699 0.849756 8.46625C0.850881 8.5626 0.890164 8.65458 0.958993 8.72201L4.21699 11.907C4.35999 12.047 4.57799 12.032 4.70099 11.874L10.973 3.82601C11.0318 3.74987 11.0582 3.65356 11.0465 3.55804C11.0347 3.46253 10.9856 3.37554 10.91 3.31601Z" fill="black"/>
</svg>
