<svg width="24" height="24" viewBox="0 0 24 24" fill="none" xmlns="http://www.w3.org/2000/svg">
<path d="M12 4.70001C7.50005 4.70001 3.80005 8.40001 3.80005 12.9C3.80005 17.4 7.50005 21.1 12 21.1C16.5 21.1 20.2001 17.4 20.2001 12.9C20.2001 8.40001 16.5 4.70001 12 4.70001ZM12.8 18.6H11.2V17H12.8V18.6ZM14.5 12.3L13.8 13C13.1 13.6 12.8 14.1 12.8 15.3H11.2V14.9C11.2 14 11.5 13.2 12.2 12.6L13.2 11.5C13.5 11.3 13.7 10.8 13.7 10.4C13.7 9.50001 13 8.80001 12.1 8.80001C11.2 8.80001 10.5 9.50001 10.5 10.4H8.70005C8.70005 8.60001 10.2 7.10001 12 7.10001C13.8 7.10001 15.3 8.60001 15.3 10.4C15.3 11.2 14.9 11.8 14.5 12.3Z" fill="black"/>
</svg>
