<svg width="24" height="24" viewBox="0 0 24 24" fill="none" xmlns="http://www.w3.org/2000/svg">
<path d="M10.852 12.648H13.148L12 8.99999L10.852 12.648ZM20 8.69099V5.99999C20 4.89799 19.102 3.99999 18 3.99999H15.309L13.41 2.10199C13.035 1.72705 12.5264 1.51642 11.996 1.51642C11.4657 1.51642 10.9571 1.72705 10.582 2.10199L8.69203 3.99999H6.00003C4.89803 3.99999 4.00003 4.89799 4.00003 5.99999V8.69099L2.10203 10.59C1.72684 10.9657 1.51611 11.475 1.51611 12.006C1.51611 12.537 1.72684 13.0463 2.10203 13.422L4.00003 15.32V18C4.00003 19.102 4.89803 20 6.00003 20H8.69103L10.59 21.898C11.371 22.68 12.64 22.68 13.422 21.898L15.32 20H18C19.102 20 20 19.102 20 18V15.309L21.898 13.41C22.2732 13.0343 22.4839 12.525 22.4839 11.994C22.4839 11.463 22.2732 10.9537 21.898 10.578L20 8.69099ZM14.09 15.398L13.602 14H10.398L9.91003 15.398C9.85008 15.5733 9.73693 15.7255 9.58636 15.8334C9.43578 15.9413 9.25528 15.9996 9.07003 16C8.92689 16.0008 8.78567 15.9671 8.65839 15.9016C8.53112 15.8361 8.42156 15.7408 8.33906 15.6238C8.25656 15.5068 8.20356 15.3717 8.18458 15.2298C8.16559 15.0879 8.18119 14.9435 8.23003 14.809L10.672 7.94899C10.872 7.37999 11.398 6.99999 12 6.99999C12.602 6.99999 13.129 7.37899 13.34 7.94099L15.781 14.801C15.8286 14.9353 15.8432 15.0791 15.8236 15.2203C15.804 15.3614 15.7509 15.4958 15.6685 15.6121C15.5862 15.7284 15.4772 15.8233 15.3506 15.8887C15.224 15.9541 15.0835 15.9882 14.941 15.988C14.7546 15.9941 14.5712 15.9401 14.4179 15.8338C14.2646 15.7275 14.1497 15.5747 14.09 15.398Z" fill="black"/>
</svg>
