<svg width="24" height="24" viewBox="0 0 24 24" fill="none" xmlns="http://www.w3.org/2000/svg">
<path d="M12 7.00002C12.2628 6.99996 12.5229 6.94815 12.7656 6.84755C13.0083 6.74696 13.2288 6.59955 13.4145 6.41374C13.6002 6.22793 13.7475 6.00736 13.848 5.76462C13.9484 5.52188 14.0001 5.26173 14 4.99902C14 4.73631 13.9482 4.47619 13.8476 4.2335C13.747 3.99082 13.5996 3.77032 13.4138 3.5846C13.228 3.39889 13.0074 3.25159 12.7646 3.15111C12.5219 3.05064 12.2618 2.99896 11.999 2.99902C11.4685 2.99916 10.9597 3.21005 10.5846 3.58531C10.2096 3.96057 9.99892 4.46946 9.99905 5.00002C9.99918 5.53059 10.2101 6.03937 10.5853 6.41444C10.9606 6.78952 11.4695 7.00016 12 7.00002ZM12 9.00002C11.7337 8.994 11.4689 9.04125 11.221 9.13899C10.9732 9.23674 10.7474 9.38301 10.5569 9.56923C10.3664 9.75544 10.215 9.97784 10.1116 10.2234C10.0082 10.4689 9.9549 10.7326 9.95483 10.999C9.95477 11.2654 10.0079 11.5292 10.1112 11.7747C10.2145 12.0203 10.3657 12.2428 10.5562 12.4291C10.7466 12.6154 10.9723 12.7618 11.2201 12.8597C11.4679 12.9575 11.7327 13.0049 11.999 12.999C12.5216 12.9875 13.0189 12.7718 13.3844 12.3982C13.75 12.0246 13.9547 11.5227 13.9548 11C13.955 10.4773 13.7505 9.97535 13.3851 9.60156C13.0198 9.22776 12.5226 9.01184 12 9.00002ZM12 15C11.7337 14.994 11.4689 15.0412 11.221 15.139C10.9732 15.2367 10.7474 15.383 10.5569 15.5692C10.3664 15.7554 10.215 15.9778 10.1116 16.2234C10.0082 16.4689 9.9549 16.7326 9.95483 16.999C9.95477 17.2654 10.0079 17.5292 10.1112 17.7747C10.2145 18.0203 10.3657 18.2428 10.5562 18.4291C10.7466 18.6154 10.9723 18.7618 11.2201 18.8597C11.4679 18.9575 11.7327 19.0049 11.999 18.999C12.5216 18.9875 13.0189 18.7718 13.3844 18.3982C13.75 18.0246 13.9547 17.5227 13.9548 17C13.955 16.4773 13.7505 15.9754 13.3851 15.6016C13.0198 15.2278 12.5226 15.0118 12 15Z" fill="black"/>
</svg>
