<svg width="24" height="24" viewBox="0 0 24 24" fill="none" xmlns="http://www.w3.org/2000/svg">
<path d="M11.999 14.942C14 14.942 15.53 13.412 15.53 11.411V4.34997C15.53 2.34897 14 0.81897 11.999 0.81897C9.99799 0.81897 8.46899 2.34997 8.46899 4.34997V11.411C8.46899 13.412 9.99899 14.942 11.999 14.942ZM18.237 11.412C18.237 14.943 15.295 17.414 12 17.414C8.70499 17.414 5.76299 14.943 5.76299 11.412H3.76099C3.76099 15.413 6.93899 18.709 10.822 19.297V23.181H13.176V19.297C17.06 18.709 20.237 15.413 20.237 11.412H18.237Z" fill="black"/>
</svg>
