<svg width="24" height="24" viewBox="0 0 24 24" fill="none" xmlns="http://www.w3.org/2000/svg">
<path d="M11.4848 11.754C13.2855 11.754 14.6625 10.3778 14.6625 8.57777C14.6625 6.77777 13.2848 5.40002 11.4848 5.40002C9.68478 5.40002 8.30853 6.77702 8.30853 8.57777C8.30853 10.3785 9.68402 11.754 11.4848 11.754ZM18.4965 11.274C19.6748 11.274 20.5763 10.3733 20.5763 9.19502C20.5763 8.01677 19.6748 7.11527 18.4965 7.11527C17.3183 7.11527 16.4175 8.01677 16.4175 9.19502C16.4175 10.3733 17.3183 11.274 18.4965 11.274ZM17.2035 15.6548C17.0068 15.3585 16.7836 15.0806 16.5368 14.8245C16.1336 14.4075 15.6727 14.0507 15.168 13.7648C15.003 13.6712 14.8341 13.5847 14.6618 13.5053L14.646 13.4985C13.8158 13.122 12.771 12.8603 11.472 12.8603C10.173 12.8603 9.12903 13.122 8.29803 13.4985L8.21403 13.539C8.03382 13.6249 7.85741 13.7185 7.68528 13.8195C7.21605 14.0962 6.78598 14.4345 6.40652 14.8253C6.23042 15.0079 6.06609 15.2016 5.91452 15.405C5.8543 15.4871 5.79604 15.5707 5.73977 15.6555C5.69252 15.7268 5.65277 15.7935 5.61677 15.8528L5.60778 15.8678C5.54933 15.967 5.49601 16.0691 5.44802 16.1738V17.8808H17.4938V16.1738C17.4938 16.1738 17.4413 16.0508 17.325 15.8535C17.287 15.7858 17.2464 15.7195 17.2035 15.6548ZM18.4965 12.387C17.4968 12.387 16.7145 12.612 16.1123 12.9218C16.5785 13.1764 17.0145 13.4828 17.412 13.8353C18.4635 14.7728 18.8813 15.7125 18.9248 15.816L18.9405 15.8528H22.656V14.6745C22.656 14.6745 21.6855 12.387 18.4965 12.387ZM7.05753 10.335H4.69577V7.97102H3.25802V10.335H0.900024V11.7735H3.25802V14.1323H4.69577V11.7735H7.05753V10.335Z" fill="black"/>
</svg>
