<svg width="24" height="24" viewBox="0 0 24 24" fill="none" xmlns="http://www.w3.org/2000/svg">
<path d="M12.077 1C5.9595 1 1 5.962 1 12.0825C1 18.203 5.9595 23.165 12.077 23.165C18.1945 23.165 23.154 18.203 23.154 12.0825C23.154 5.962 18.1945 1 12.077 1ZM11.705 8.714V8.405C11.705 8.052 12.014 7.743 12.367 7.743C12.72 7.743 13.0285 8.052 13.0285 8.405V8.714C14.308 9.023 15.2345 10.1255 15.2345 11.4935V13.0815L11.0875 8.9345C11.2829 8.8345 11.4905 8.76038 11.705 8.714ZM12.3665 16.567C12.1326 16.5663 11.9086 16.4732 11.7432 16.3078C11.5778 16.1424 11.4847 15.9184 11.484 15.6845H13.2485C13.2481 15.9183 13.1551 16.1425 12.9898 16.3079C12.8245 16.4733 12.6003 16.5665 12.3665 16.567ZM15.9845 16.1255L15.102 15.243H8.6165V14.802L9.499 13.9195V11.493C9.49455 10.9803 9.63194 10.4764 9.896 10.037L8.6165 8.7575L9.19 8.184L16.5575 15.552L15.9845 16.1255Z" fill="black"/>
</svg>
