<svg width="24" height="24" viewBox="0 0 24 24" fill="none" xmlns="http://www.w3.org/2000/svg">
<path d="M15.009 13.805H14.373L14.153 13.586C14.964 12.6444 15.4097 11.4427 15.409 10.2C15.4088 9.17022 15.1032 8.16359 14.531 7.30744C13.9587 6.45128 13.1454 5.78405 12.1939 5.39009C11.2425 4.99614 10.1955 4.89317 9.18555 5.09419C8.17556 5.29522 7.24785 5.79122 6.51974 6.51947C5.79163 7.24772 5.29581 8.17552 5.09498 9.18555C4.89414 10.1956 4.99732 11.2425 5.39145 12.1939C5.78559 13.1453 6.45298 13.9584 7.30925 14.5306C8.16551 15.1027 9.17219 15.408 10.202 15.408C11.4443 15.4089 12.6455 14.9635 13.587 14.153L13.808 14.373V15.008L17.812 19.007L19.006 17.812L15.009 13.805ZM10.201 13.805C9.72758 13.805 9.2588 13.7118 8.82142 13.5306C8.38405 13.3494 7.98663 13.0839 7.65188 12.7491C7.31712 12.4144 7.05158 12.017 6.87041 11.5796C6.68924 11.1422 6.596 10.6734 6.596 10.2C6.596 9.72661 6.68924 9.25783 6.87041 8.82045C7.05158 8.38307 7.31712 7.98566 7.65188 7.6509C7.98663 7.31615 8.38405 7.0506 8.82142 6.86944C9.2588 6.68827 9.72758 6.59502 10.201 6.59502C11.1571 6.59502 12.074 6.97483 12.7501 7.6509C13.4262 8.32697 13.806 9.24392 13.806 10.2C13.806 11.1561 13.4262 12.0731 12.7501 12.7491C12.074 13.4252 11.1571 13.805 10.201 13.805Z" fill="black"/>
</svg>
