<svg width="24" height="24" viewBox="0 0 24 24" fill="none" xmlns="http://www.w3.org/2000/svg">
<path d="M12.072 1.76096C10.1425 1.70994 8.23913 2.21561 6.5894 3.21755C4.93966 4.21949 3.61335 5.67529 2.76898 7.41096C2.66482 7.64257 2.65495 7.90564 2.74144 8.14441C2.82793 8.38318 3.004 8.57889 3.23233 8.69006C3.46065 8.80124 3.7233 8.81914 3.9646 8.73997C4.2059 8.6608 4.40689 8.49079 4.52498 8.26596C5.20528 6.86735 6.27395 5.69423 7.60325 4.88683C8.93254 4.07943 10.4662 3.6719 12.021 3.71296C12.1521 3.72124 12.2835 3.703 12.4073 3.65934C12.5312 3.61568 12.645 3.5475 12.7419 3.45886C12.8388 3.37022 12.9169 3.26295 12.9714 3.14346C13.0259 3.02397 13.0558 2.89471 13.0592 2.76342C13.0627 2.63212 13.0396 2.50149 12.9914 2.37931C12.9432 2.25714 12.8708 2.14594 12.7787 2.05236C12.6865 1.95878 12.5764 1.88475 12.455 1.83468C12.3336 1.78461 12.2033 1.75954 12.072 1.76096ZM1.92598 13.64C2.27748 15.5378 3.16796 17.2944 4.49101 18.6997C5.81407 20.105 7.51375 21.0997 9.38698 21.565C9.63445 21.6168 9.89238 21.5707 10.1066 21.4363C10.3207 21.3019 10.4745 21.0898 10.5355 20.8444C10.5965 20.599 10.5599 20.3395 10.4336 20.1205C10.3073 19.9015 10.1009 19.74 9.85798 19.67C8.34837 19.2954 6.9786 18.4939 5.91245 17.3615C4.84629 16.229 4.12887 14.8134 3.84598 13.284C3.7909 13.037 3.64217 12.8211 3.43109 12.6816C3.22002 12.5421 2.96306 12.4899 2.71429 12.536C2.46553 12.5822 2.24435 12.723 2.09732 12.9289C1.95029 13.1348 1.88886 13.3897 1.92598 13.64ZM15.655 21.094C17.4383 20.3555 18.9714 19.1192 20.071 17.5328C21.1706 15.9465 21.7903 14.0771 21.856 12.148C21.8613 12.0199 21.8413 11.892 21.7972 11.7716C21.7531 11.6512 21.6857 11.5407 21.5989 11.4463C21.5121 11.352 21.4075 11.2757 21.2912 11.2217C21.1749 11.1678 21.0491 11.1373 20.921 11.132C20.7929 11.1266 20.665 11.1466 20.5446 11.1907C20.4242 11.2348 20.3137 11.3022 20.2193 11.389C20.0288 11.5644 19.9157 11.8082 19.905 12.067V12.081C19.8525 13.6356 19.3534 15.1423 18.4672 16.4207C17.581 17.6992 16.3454 18.6953 14.908 19.29C14.6742 19.3909 14.489 19.5792 14.3919 19.8146C14.2949 20.0501 14.2936 20.3142 14.3884 20.5506C14.4832 20.787 14.6666 20.977 14.8994 21.0802C15.1322 21.1833 15.3962 21.1915 15.635 21.103L15.655 21.094Z" fill="black"/>
<path d="M19 1.5C19.7956 1.5 20.5587 1.81607 21.1213 2.37868C21.6839 2.94129 22 3.70435 22 4.5C22 5.29565 21.6839 6.05871 21.1213 6.62132C20.5587 7.18393 19.7956 7.5 19 7.5C18.2044 7.5 17.4413 7.18393 16.8787 6.62132C16.3161 6.05871 16 5.29565 16 4.5C16 3.70435 16.3161 2.94129 16.8787 2.37868C17.4413 1.81607 18.2044 1.5 19 1.5Z" fill="#009588"/>
</svg>
