<svg width="24" height="24" viewBox="0 0 24 24" fill="none" xmlns="http://www.w3.org/2000/svg">
<path d="M12 20.6639C10.7884 20.6671 9.58816 20.4299 8.46883 19.9661C7.34951 19.5023 6.33328 18.8211 5.47896 17.9619C5.30525 17.7769 5.21035 17.5316 5.21435 17.2778C5.21835 17.0241 5.32094 16.7818 5.50039 16.6024C5.67984 16.4229 5.92208 16.3203 6.17583 16.3163C6.42958 16.3123 6.67494 16.4072 6.85996 16.5809C8.17987 17.9009 9.95701 18.6625 11.8231 18.7079C13.6893 18.7534 15.5014 18.0791 16.884 16.8249C17.0774 16.6629 17.326 16.5819 17.5777 16.599C17.8295 16.6161 18.0649 16.73 18.2346 16.9167C18.4043 17.1035 18.4951 17.3487 18.4881 17.6009C18.4811 17.8531 18.3768 18.0929 18.197 18.2699C16.502 19.8126 14.2918 20.6664 12 20.6639ZM19.965 14.5519C19.8152 14.5519 19.6674 14.5175 19.533 14.4513C19.3987 14.3851 19.2813 14.2889 19.1901 14.1701C19.0988 14.0513 19.0361 13.9131 19.0068 13.7662C18.9775 13.6193 18.9823 13.4677 19.021 13.3229C19.5067 11.5198 19.279 9.59874 18.3851 7.95913C17.4912 6.31951 15.9998 5.08743 14.221 4.51894C13.9835 4.43287 13.7886 4.25818 13.6771 4.0315C13.5657 3.80483 13.5463 3.5438 13.6232 3.30318C13.7 3.06256 13.8671 2.86105 14.0893 2.74094C14.3115 2.62082 14.5716 2.59143 14.815 2.65894C17.0719 3.37999 18.9642 4.94289 20.0987 7.0229C21.2332 9.1029 21.5227 11.5401 20.907 13.8279C20.8515 14.0355 20.7291 14.2189 20.5588 14.3498C20.3885 14.4807 20.1798 14.5517 19.965 14.5519ZM3.93996 14.1619C3.71725 14.1616 3.50135 14.0851 3.32803 13.9453C3.15471 13.8054 3.03437 13.6105 2.98696 13.3929C2.48251 11.078 2.88961 8.65765 4.12363 6.6351C5.35764 4.61254 7.32365 3.14335 9.61296 2.53294C9.73653 2.4988 9.86562 2.48933 9.99285 2.50507C10.1201 2.52082 10.243 2.56147 10.3545 2.6247C10.466 2.68794 10.564 2.77252 10.6428 2.87363C10.7217 2.97473 10.7798 3.09037 10.814 3.21394C10.8481 3.33751 10.8576 3.4666 10.8418 3.59384C10.8261 3.72107 10.7854 3.84396 10.7222 3.95548C10.659 4.067 10.5744 4.16498 10.4733 4.24381C10.3722 4.32265 10.2565 4.3808 10.133 4.41494L10.118 4.41894C8.3138 4.89992 6.76436 6.0576 5.79166 7.65139C4.81896 9.24518 4.49781 11.1525 4.89496 12.9769C4.92584 13.1196 4.92442 13.2673 4.89079 13.4093C4.85716 13.5513 4.79218 13.684 4.7006 13.7976C4.60903 13.9113 4.49319 14.003 4.36157 14.066C4.22995 14.129 4.08589 14.1618 3.93996 14.1619Z" fill="black"/>
</svg>
