<svg width="24" height="24" viewBox="0 0 24 24" fill="none" xmlns="http://www.w3.org/2000/svg">
<path d="M9.16982 23.6946C9.10322 23.6946 9.03572 23.6862 8.96822 23.6685C3.77612 22.2972 0.150024 17.5764 0.150024 12.1893C0.150024 11.1366 0.287724 10.0926 0.558924 9.08642C0.616666 8.88865 0.749609 8.72139 0.92924 8.62051C1.10887 8.51962 1.32088 8.49315 1.51981 8.54677C1.71873 8.60038 1.88872 8.72982 1.99332 8.90731C2.09792 9.08481 2.12879 9.29622 2.07932 9.49622C1.84334 10.3744 1.72412 11.2799 1.72472 12.1893C1.72472 16.8627 4.86872 20.9571 9.37022 22.1457C9.55513 22.1945 9.71595 22.309 9.82266 22.4677C9.92937 22.6264 9.97469 22.8185 9.95015 23.0082C9.92561 23.1978 9.8329 23.3721 9.68931 23.4984C9.54572 23.6247 9.36107 23.6945 9.16982 23.6946ZM14.9763 23.6625C20.2008 22.3092 23.85 17.5833 23.85 12.1689C23.85 11.1258 23.7144 10.089 23.4465 9.08792C23.4198 8.98803 23.3737 8.89438 23.3108 8.81231C23.2479 8.73025 23.1694 8.66138 23.0799 8.60963C22.9904 8.55789 22.8916 8.52428 22.789 8.51073C22.6865 8.49718 22.5824 8.50396 22.4825 8.53067C22.3826 8.55738 22.2889 8.6035 22.2069 8.66641C22.1248 8.72931 22.0559 8.80776 22.0042 8.89728C21.9524 8.9868 21.9188 9.08564 21.9053 9.18815C21.8917 9.29066 21.8985 9.39483 21.9252 9.49472C22.1577 10.3671 22.2753 11.2661 22.275 12.1689C22.275 16.8654 19.1115 20.9646 14.5812 22.1379C14.3803 22.1915 14.2087 22.3223 14.1039 22.5018C13.9991 22.6814 13.9695 22.8951 14.0217 23.0964C14.0738 23.2977 14.2035 23.4702 14.3823 23.5762C14.5612 23.6823 14.7747 23.7133 14.9763 23.6625ZM4.64462 4.95002C6.59042 2.97032 9.18842 1.88012 11.9601 1.88012C14.703 1.88012 17.2815 2.95082 19.2207 4.89512C19.3682 5.04299 19.5684 5.12621 19.7773 5.12646C19.9862 5.12671 20.1866 5.04398 20.3345 4.89647C20.4823 4.74896 20.5656 4.54874 20.5658 4.33987C20.5661 4.13101 20.4833 3.93059 20.3358 3.78272C18.0987 1.54052 15.1239 0.30542 11.9601 0.30542C8.76272 0.30542 5.76572 1.56272 3.52172 3.84602C3.37532 3.99493 3.29407 4.19589 3.29585 4.4047C3.29762 4.61351 3.38227 4.81307 3.53117 4.95947C3.68008 5.10587 3.88104 5.18712 4.08986 5.18535C4.29867 5.18358 4.49822 5.09893 4.64462 4.95002Z" fill="black"/>
</svg>
