<svg width="16" height="15" viewBox="0 0 16 15" fill="none" xmlns="http://www.w3.org/2000/svg">
<path d="M10.91 3.31601L10.432 2.94401C10.3558 2.88515 10.2595 2.85875 10.164 2.87055C10.0685 2.88235 9.98153 2.93139 9.92199 3.00701L4.56599 9.87901C4.5384 9.91588 4.50317 9.94637 4.46271 9.96838C4.42225 9.99038 4.37751 10.0034 4.33156 10.0065C4.28561 10.0097 4.23953 10.0028 4.19645 9.98653C4.15338 9.97022 4.11434 9.9448 4.08199 9.91201L1.89099 7.76901C1.82168 7.70196 1.72869 7.66497 1.63226 7.6661C1.53582 7.66722 1.44373 7.70636 1.37599 7.77501L0.952993 8.20801C0.885757 8.27703 0.848632 8.3699 0.849756 8.46625C0.850881 8.5626 0.890164 8.65458 0.958993 8.72201L4.21699 11.907C4.35999 12.047 4.57799 12.032 4.70099 11.874L10.973 3.82601C11.0318 3.74987 11.0582 3.65356 11.0465 3.55804C11.0347 3.46253 10.9856 3.37554 10.91 3.31601Z" fill="black"/>
</svg>
